<svg width="24" height="24" viewBox="0 0 24 24" fill="none" xmlns="http://www.w3.org/2000/svg">
	<path fill-rule="evenodd" clip-rule="evenodd" d="M22 12C22 17.5228 17.5228 22 12 22C6.47715 22 2 17.5228 2 12C2 6.47715 6.47715 2 12 2C17.5228 2 22 6.47715 22 12ZM9.70725 8.29304C9.31681 7.90244 8.68365 7.9023 8.29304 8.29275C7.90244 8.68319 7.9023 9.31635 8.29275 9.70696L10.5851 12.0003L8.29284 14.2929C7.90235 14.6835 7.90239 15.3167 8.29294 15.7072C8.68349 16.0977 9.31666 16.0976 9.70716 15.7071L11.9994 13.4145L14.293 15.7073C14.6836 16.0977 15.3168 16.0976 15.7073 15.707C16.0977 15.3164 16.0976 14.6832 15.707 14.2927L13.4136 12.0003L15.7071 9.70716C16.0976 9.31666 16.0977 8.68349 15.7072 8.29294C15.3167 7.90239 14.6835 7.90235 14.2929 8.29284L11.9994 10.5861L9.70725 8.29304Z" fill="#E0E0E0"/>
</svg>
