<svg width="20" height="20" viewBox="0 0 20 20" fill="none" xmlns="http://www.w3.org/2000/svg">
  <path fill-rule="evenodd" clip-rule="evenodd" d="M14.334 0H5.665C2.26743 0 0 2.4326 0 5.916V14.084C0 17.5707 2.26137 20 5.665 20H14.333C17.7376 20 20 17.5707 20 14.084V5.916C20 2.4295 17.7378 0 14.334 0ZM5.665 1.5H14.334C16.8845 1.5 18.5 3.23496 18.5 5.916V14.084C18.5 16.7652 16.8844 18.5 14.333 18.5H5.665C3.11476 18.5 1.5 16.7653 1.5 14.084V5.916C1.5 3.23837 3.12034 1.5 5.665 1.5ZM9.9993 5.4541C10.4135 5.4541 10.7493 5.78989 10.7493 6.2041C10.7493 6.5838 10.4671 6.89759 10.1011 6.94725L9.9893 6.9541C9.57509 6.9541 9.2393 6.61831 9.2393 6.2041C9.2393 5.8244 9.52145 5.51061 9.88753 5.46095L9.9993 5.4541ZM9.9893 8.6269C10.369 8.6269 10.6828 8.90905 10.7325 9.27513L10.7393 9.3769V13.7959C10.7393 14.2101 10.4035 14.5459 9.9893 14.5459C9.6096 14.5459 9.29581 14.2637 9.24615 13.8977L9.2393 13.7959V9.3769C9.2393 8.96269 9.57509 8.6269 9.9893 8.6269Z" fill="white"/>
</svg>
